<?xml version="1.0" encoding="utf-8"?>
<!-- Generator: Adobe Illustrator 15.1.0, SVG Export Plug-In . SVG Version: 6.00 Build 0)  -->
<!DOCTYPE svg PUBLIC "-//W3C//DTD SVG 1.1//EN" "http://www.w3.org/Graphics/SVG/1.1/DTD/svg11.dtd">
<svg version="1.1" id="Layer_1" xmlns="http://www.w3.org/2000/svg" xmlns:xlink="http://www.w3.org/1999/xlink" x="0px" y="0px"
	 width="612px" height="792px" viewBox="0 0 612 792" enable-background="new 0 0 612 792" xml:space="preserve">
<g>
	<path fill-rule="evenodd" clip-rule="evenodd" d="M327,235c7.766,33.744-8.684,58.851-32,68c-2.22-1.447-1.381-5.952-3-8
		c4.77-8.113,8.769-18.194,14-29c5.436-11.228,9.615-26.743,19-31C325.667,235,326.333,235,327,235z"/>
	<path fill-rule="evenodd" clip-rule="evenodd" d="M287,239c21.466,13.951-5.942,37.173,4,62c-3.813-13.521-9.289-25.378-17-35
		C279.556,258.222,283.378,248.711,287,239z"/>
	<path fill-rule="evenodd" clip-rule="evenodd" d="M330,277c4.932,37.266-24.616,48.716-38,71c-12.969,6.364-26.669,11.998-45,13
		C288.188,346.521,322.665,325.332,330,277z"/>
	<path fill-rule="evenodd" clip-rule="evenodd" d="M287,311c-8.177,21.156-22.84,35.826-50,38c-1.829-1.875,1.56-5.073,3-8
		c4.223-8.582,9.447-20.048,13-29C261.32,308.542,277.697,307.481,287,311z"/>
	<path fill-rule="evenodd" clip-rule="evenodd" d="M256,441c2.174,0.52,0.449,13.53,1,19C254.826,459.48,256.551,446.47,256,441z"/>
	<path fill-rule="evenodd" clip-rule="evenodd" d="M259,447c1.917-2.173,0.631,7.312,1,10C258.083,459.173,259.369,449.688,259,447z
		"/>
	<path fill-rule="evenodd" clip-rule="evenodd" d="M246,472c5.272,44.466,35.296,69.274,65,86
		C272.954,549.712,244.013,523.654,246,472z"/>
	<path fill-rule="evenodd" clip-rule="evenodd" d="M276,229c3.651,0.016,4.491,2.843,7,4c-0.733,1.781-1.818,0.144-3,0
		c-3.112,10.754-11.54,16.231-10,29C264.698,255.195,271.932,236.298,276,229z"/>
	<path fill-rule="evenodd" clip-rule="evenodd" d="M310,244c-6.379,13.273-13.581,23.372-17,38
		C290.449,265.111,301.636,253.306,310,244z"/>
	<path fill-rule="evenodd" clip-rule="evenodd" d="M238,271c-3.618-4.049-3.664-11.67-5-18c2.46-0.947,9.944,0.352,14,1
		C240.315,253.27,235.754,262.954,238,271z"/>
	<path fill-rule="evenodd" clip-rule="evenodd" d="M255,258c17.302,5.034,30.98,22.352,33,46c-21.985,0.318-34.001-9.332-44-21
		C247.289,278.136,254.909,265.831,255,258z"/>
	<path fill-rule="evenodd" clip-rule="evenodd" d="M276,394c5.871-14.465,24.968-24.363,36-37c-13.055,7.279-27.021,13.645-37,24
		c-0.617-2.05,3.7-4.444,3-8c-1.419-0.086-2.832-0.165-3,1c21.595-28.072,67.835-40.165,61-100c10.116,10.027,16.29,24.409,15,43
		c-3.274,47.197-52.649,67.332-75,97C276.925,412.054,278.884,393.763,276,394z"/>
	<path fill-rule="evenodd" clip-rule="evenodd" d="M276,414c22.351-29.668,71.726-49.803,75-97c1.29-18.591-4.884-32.973-15-43
		c6.835,59.835-39.405,71.928-61,100c0.168-1.165,1.581-1.086,3-1c0.7,3.556-3.617,5.95-3,8c9.979-10.355,23.945-16.721,37-24
		c-11.032,12.637-30.129,22.535-36,37C278.884,393.763,276.925,412.054,276,414z M270,262c-1.54-12.769,6.888-18.246,10-29
		c1.182,0.144,2.267,1.781,3,0c-2.509-1.157-3.349-3.984-7-4C271.932,236.298,264.698,255.195,270,262z M325,235
		c-9.385,4.257-13.564,19.772-19,31c-5.231,10.806-9.23,20.887-14,29c1.619,2.048,0.78,6.553,3,8c23.316-9.149,39.766-34.256,32-68
		C326.333,235,325.667,235,325,235z M274,266c7.711,9.622,13.188,21.479,17,35c-9.942-24.827,17.466-48.049-4-62
		C283.378,248.711,279.556,258.222,274,266z M293,282c3.419-14.628,10.621-24.727,17-38C301.636,253.306,290.449,265.111,293,282z
		 M247,254c-4.056-0.648-11.54-1.947-14-1c1.336,6.33,1.382,13.951,5,18C235.754,262.954,240.315,253.27,247,254z M244,283
		c9.999,11.668,22.015,21.318,44,21c-2.02-23.648-15.698-40.966-33-46C254.909,265.831,247.289,278.136,244,283z M247,361
		c18.331-1.002,32.031-6.636,45-13c13.384-22.284,42.932-33.734,38-71C322.665,325.332,288.188,346.521,247,361z M314,396
		c-0.453,15.991-1.684,47.277,1,53c-0.136,2.276-6.02,3.874-3,6c8.824-10.775,23.756-20.207,43-22c14.509-1.352,30.958,3.035,39-8
		c-2.829-9.988-4.205-18.022,3-24c-3.199-3.86-3.244-8.936,0-13c-1.668-5.794-7.597-5.639-7-13c0.603-7.431,10.667-8.114,10-15
		c-0.378-3.902-13.666-12.644-17-17c-14.873-19.437-11.84-55.835-32-66c23.886,53.478-14.273,97.767-39,119
		C312.012,394.991,313.753,394.742,314,396z M286,307c-20.473-0.196-31.958-14.705-45-19c-0.771,6.944-6.25,21.895-12,24
		C245.471,321.183,263.331,300.771,286,307z M212,297c1.366,4.323,7.304,9.333,10,9c-1.105-0.677-5.188-3.323-3-4
		c3.371-2.773,4.324-11.427,11-13C223.02,290.687,217.145,293.478,212,297z M253,312c-3.553,8.952-8.777,20.418-13,29
		c-1.44,2.927-4.829,6.125-3,8c27.16-2.174,41.823-16.844,50-38C277.697,307.481,261.32,308.542,253,312z M221,347
		c2.672-0.578,6.248,2.958,8,0c-2.387-7.801,10.098-23.173,13-29C232.926,325.593,224.427,333.761,221,347z M234,482
		c-11.379-37.86,0.036-87.657,21-107C225.978,390.599,210.147,448.487,234,482z M259,485c0.459-3.153-4.829-9.15-5-15
		c1.182,0.145,2.267,1.78,3,0c-11.858-18.385-6.464-56.784,2-71c-0.656,1.439-2.864,6.342-4,4c-1.803-4.615,4.799-14.258,4-14
		C232.318,408.701,240.722,462.412,259,485z M293,528c-4.296-5.074-5.372-10.152-7-16c3.473-5.442-0.38-10.68,2-17
		c-13.801-16.748-3.503-53.433,5-61c-0.677,1.105-3.323,5.188-4,3c-0.473-3.14,2.691-2.642,3-5c-6.05-0.008-2.427,6.427-6,7
		c1.752-2.875-1.306-6.472,3-9c-7.61-2.237,3.694-12.599,4-15C262.049,437.084,268.882,510.369,293,528z M257,460
		c-0.551-5.47,1.174-18.48-1-19C256.551,446.47,254.826,459.48,257,460z M260,457c-0.369-2.688,0.917-12.173-1-10
		C259.369,449.688,258.083,459.173,260,457z M291,488c0,1,0,2,0,3c0.779-0.221,1.163-0.837,1-2c-2.722-6.771-3.819-18.426-3-28
		c0.272-3.178,3.811-13.796,2-12C286.92,458.178,286.323,478.957,291,488z M311,558c-29.704-16.726-59.728-41.534-65-86
		C244.013,523.654,272.954,549.712,311,558z M311,545c6.838,3.495,12.59,8.077,21,10c2.918,0.502-14.629-7.044-15-11
		c-1.377-0.043-2.196,0.471-3,1c3.396-1.772-4.805-6.129-2-4C315.075,544.025,312.674,544.439,311,545z"/>
	<path fill-rule="evenodd" clip-rule="evenodd" d="M312,396c24.727-21.233,62.886-65.522,39-119c20.16,10.165,17.127,46.563,32,66
		c3.334,4.356,16.622,13.098,17,17c0.667,6.886-9.397,7.569-10,15c-0.597,7.361,5.332,7.206,7,13c-3.244,4.064-3.199,9.14,0,13
		c-7.205,5.978-5.829,14.012-3,24c-8.042,11.035-24.491,6.648-39,8c-19.244,1.793-34.176,11.225-43,22c-3.02-2.126,2.864-3.724,3-6
		c-2.684-5.723-1.453-37.009-1-53C313.753,394.742,312.012,394.991,312,396z"/>
	<path fill-rule="evenodd" clip-rule="evenodd" d="M229,312c5.75-2.105,11.229-17.056,12-24c13.042,4.295,24.527,18.804,45,19
		C263.331,300.771,245.471,321.183,229,312z"/>
	<path fill-rule="evenodd" clip-rule="evenodd" d="M230,289c-6.676,1.573-7.629,10.227-11,13c-2.188,0.677,1.895,3.323,3,4
		c-2.696,0.333-8.634-4.677-10-9C217.145,293.478,223.02,290.687,230,289z"/>
	<path fill-rule="evenodd" clip-rule="evenodd" d="M242,318c-2.902,5.827-15.387,21.199-13,29c-1.752,2.958-5.328-0.578-8,0
		C224.427,333.761,232.926,325.593,242,318z"/>
	<path fill-rule="evenodd" clip-rule="evenodd" d="M255,375c-20.964,19.343-32.379,69.14-21,107
		C210.147,448.487,225.978,390.599,255,375z"/>
	<path fill-rule="evenodd" clip-rule="evenodd" d="M259,389c0.799-0.258-5.803,9.385-4,14c1.136,2.342,3.344-2.561,4-4
		c-8.464,14.216-13.858,52.615-2,71c-0.733,1.78-1.818,0.145-3,0c0.171,5.85,5.459,11.847,5,15
		C240.722,462.412,232.318,408.701,259,389z"/>
	<path fill-rule="evenodd" clip-rule="evenodd" d="M293,415c-0.306,2.401-11.61,12.763-4,15c-4.306,2.528-1.248,6.125-3,9
		c3.573-0.573-0.05-7.008,6-7c-0.309,2.358-3.473,1.86-3,5c0.677,2.188,3.323-1.895,4-3c-8.503,7.567-18.801,44.252-5,61
		c-2.38,6.32,1.473,11.558-2,17c1.628,5.848,2.704,10.926,7,16C268.882,510.369,262.049,437.084,293,415z"/>
	<path fill-rule="evenodd" clip-rule="evenodd" d="M291,449c1.811-1.796-1.728,8.822-2,12c-0.819,9.574,0.278,21.229,3,28
		c0.163,1.163-0.221,1.779-1,2c0-1,0-2,0-3C286.323,478.957,286.92,458.178,291,449z"/>
	<path fill-rule="evenodd" clip-rule="evenodd" d="M312,541c-2.805-2.129,5.396,2.228,2,4c0.804-0.529,1.623-1.043,3-1
		c0.371,3.956,17.918,11.502,15,11c-8.41-1.923-14.162-6.505-21-10C312.674,544.439,315.075,544.025,312,541z"/>
</g>
</svg>
